<svg
  xmlns="http://www.w3.org/2000/svg"
  xmlns:xlink="http://www.w3.org/1999/xlink"
  version="1.1"
  width="256"
  height="256"
  viewBox="0 0 256 256"
  xml:space="preserve"
>

  <defs>
  </defs>
  <g
    style="stroke: none; stroke-width: 0; stroke-dasharray: none; stroke-linecap: butt; stroke-linejoin: miter; stroke-miterlimit: 10; fill: none; fill-rule: nonzero; opacity: 1;"
    transform="translate(1.4065934065934016 1.4065934065934016) scale(2.81 2.81)"
  >
    <polygon
      points="62.86,74.84 50.08,56.26 59.1,56.26 46.17,37.46 54.56,37.46 31.43,3.82 8.3,37.46 16.68,37.46 3.76,56.26 12.78,56.26 0,74.84 "
      style="stroke: none; stroke-width: 1; stroke-dasharray: none; stroke-linecap: butt; stroke-linejoin: miter; stroke-miterlimit: 10; fill: rgb(55,135,95); fill-rule: nonzero; opacity: 1;"
      transform="  matrix(1 0 0 1 0 0) "
    />
    <rect
      x="25.25"
      y="74.84"
      rx="0"
      ry="0"
      width="12.37"
      height="11.34"
      style="stroke: none; stroke-width: 1; stroke-dasharray: none; stroke-linecap: butt; stroke-linejoin: miter; stroke-miterlimit: 10; fill: rgb(124,83,64); fill-rule: nonzero; opacity: 1;"
      transform=" matrix(1 0 0 1 0 0) "
    />
    <polygon
      points="90,74.84 77.22,56.26 86.24,56.26 73.31,37.46 81.7,37.46 58.57,3.82 35.44,37.46 43.83,37.46 30.9,56.26 39.92,56.26 27.14,74.84 "
      style="stroke: none; stroke-width: 1; stroke-dasharray: none; stroke-linecap: butt; stroke-linejoin: miter; stroke-miterlimit: 10; fill: rgb(65,159,112); fill-rule: nonzero; opacity: 1;"
      transform="  matrix(1 0 0 1 0 0) "
    />
    <rect
      x="52.39"
      y="74.84"
      rx="0"
      ry="0"
      width="12.37"
      height="11.34"
      style="stroke: none; stroke-width: 1; stroke-dasharray: none; stroke-linecap: butt; stroke-linejoin: miter; stroke-miterlimit: 10; fill: rgb(146,98,77); fill-rule: nonzero; opacity: 1;"
      transform=" matrix(1 0 0 1 0 0) "
    />
  </g>
</svg>
