<svg
  version="1.1"
  xmlns="http://www.w3.org/2000/svg"
  viewBox="0 0 100 100"
>
  <path
    fill-opacity="0"
    stroke="#FFFFFF"
    stroke-width="5"
    stroke-miterlimit="10"
    d="M96.465,87.627L70.56,61.721C74.924,55.591,77.5,48.099,77.5,40C77.5,19.29,60.711,2.5,40,2.5C19.29,2.5,2.5,19.29,2.5,40c0,20.711,16.79,37.5,37.5,37.5c8.098,0,15.591-2.575,21.72-6.94l25.906,25.905L96.465,87.627z M40,65c-13.807,0-25-11.192-25-25c0-13.807,11.193-25,25-25c13.808,0,25,11.193,25,25C65,53.808,53.808,65,40,65z"
  />
</svg>